<?xml version="1.0" encoding="UTF-8" standalone="no"?>
<!DOCTYPE svg PUBLIC "-//W3C//DTD SVG 20010904//EN" "http://www.w3.org/TR/2001/REC-SVG-20010904/DTD/svg10.dtd">
<svg version="1.0" xmlns="http://www.w3.org/2000/svg" width="64.000000pt" height="64.000000pt" viewBox="0 0 64.000000 64.000000" preserveAspectRatio="xMidYMid meet">
<metadata>
Created by potrace 1.10, written by Peter Selinger 2001-2011
</metadata>
<g transform="translate(0.000000,64.000000) scale(0.100000,-0.100000)" fill="#aaaaaa" stroke="none">
<path d="M67 584 c-34 -18 -32 -43 3 -61 35 -18 475 -18 510 0 36 18 37 43 1 61 -44 23 -472 23 -514 0z"/>
<path d="M67 344 c-34 -18 -32 -43 3 -61 35 -18 475 -18 510 0 36 18 37 43 1 61 -44 23 -472 23 -514 0z"/>
<path d="M67 104 c-34 -18 -32 -43 3 -61 35 -18 475 -18 510 0 36 18 37 43 1 61 -44 23 -472 23 -514 0z"/>
</g>
</svg>