<?xml version="1.0" encoding="utf-8"?>
<!-- Generator: Adobe Illustrator 24.0.0, SVG Export Plug-In . SVG Version: 6.00 Build 0)  -->
<svg version="1.1" id="Layer_1" xmlns="http://www.w3.org/2000/svg" xmlns:xlink="http://www.w3.org/1999/xlink" x="0px" y="0px"
	 viewBox="0 0 308 308" style="enable-background:new 0 0 308 308;" xml:space="preserve">
<style type="text/css">
	.st0{fill:url(#SVGID_1_);}
	.st1{fill:url(#SVGID_2_);}
</style>
<title>test_icon</title>
<linearGradient id="SVGID_1_" gradientUnits="userSpaceOnUse" x1="-33.6078" y1="-61.2205" x2="417.1722" y2="464.6895" gradientTransform="matrix(1 0 0 -1 0 308)">
	<stop  offset="0.1" style="stop-color:#F72E10"/>
	<stop  offset="0.84" style="stop-color:#F8D421"/>
</linearGradient>
<path class="st0" d="M266.1,232.5l-5.4,1.3c-12.2-16.1-16.3-19.7-17.1-20.3l-3.7,4.7l-3.7,4.7l-0.1-0.1c0.4,0.3,3.4,3.2,11.8,14
	l-32.1,7.6c-1.5-4.9-3.3-11.1-5.5-19.1l-5.8,1.6l-5.8,1.6c2.1,7.5,3.9,13.7,5.4,18.6L85.4,275c-5.9,1.4-11.9-2.3-13.3-8.2
	l-13.1-55.7l-2.3-10h9.8v-25.4h15.7c10.1,0,19.6-4.5,26.2-12.2c0.4-0.4,0.7-0.9,1.1-1.3l0.5-0.7c0.3-0.4,0.7-0.9,1-1.4
	s0.6-0.9,0.9-1.4c0.5-0.8,0.9-1.6,1.3-2.5l0.1-0.3c0.4-0.8,0.8-1.7,1.1-2.6c0.4-1,0.7-2,1-3.1c0.1-0.4,0.2-0.8,0.3-1.2
	c0.3-1.2,0.5-2.4,0.7-3.6c0.7-5.1,0.3-10.3-1.2-15.2c-0.4-1.5-1-2.9-1.6-4.3c-0.6-1.3-1.3-2.5-2-3.8c-0.1-0.2-0.3-0.5-0.4-0.7
	c-0.3-0.5-0.6-1-1-1.4l-0.5-0.7c-0.5-0.7-1-1.3-1.6-2c-6.7-7.7-16.4-12.2-26.6-12.2H41.4v30.3l-9.4-40.2L29.7,86
	c-1.4-5.9,2.2-11.8,8.1-13.3c0,0,0.1,0,0.1,0l27.3-6.4c5.7,19.1,8.2,23.9,8.7,24.8l5.2-3.1l5.2-3.1c-0.4-0.8-2.6-5.6-7.3-21.3l30-7
	c0.3,1.1,0.5,2.1,0.7,3c1.8,8.1,2.3,10.2,7.9,19.5l5.2-3.1l5.1-3.1c-4.8-7.9-4.9-8.7-6.5-15.8c-0.2-0.9-0.4-2-0.7-3.2l100-23.6
	c5.9-1.4,11.8,2.2,13.3,8.1c0,0,0,0.1,0,0.1l13.4,56.9l3.4,14.4L223.6,164l-18.2-39.8h-10.6L176.5,164l-27-58.5h-27.6l44.1,95.6
	h18.1L200,167l15.9,34H234l24-51.7l3.7,15.8l12.7,54.1c1.4,5.9-2.2,11.8-8.2,13.3C266.2,232.5,266.2,232.5,266.1,232.5z"/>
<linearGradient id="SVGID_2_" gradientUnits="userSpaceOnUse" x1="-82.6849" y1="-19.1658" x2="368.0951" y2="506.7542" gradientTransform="matrix(1 0 0 -1 0 308)">
	<stop  offset="0.1" style="stop-color:#F72E10"/>
	<stop  offset="0.84" style="stop-color:#F8D421"/>
</linearGradient>
<path class="st1" d="M95.8,140.4c0,7.5-6.1,13.6-13.6,13.6c-0.1,0-0.2,0-0.2,0H66.5v-27.4H82c7.6-0.1,13.8,6,13.8,13.6
	C95.8,140.3,95.8,140.3,95.8,140.4z"/>
</svg>
